M48
INCH,TZ
T1C0.016
T2C0.030
T3C0.031
T4C0.032
T5C0.039
T6C0.040
T7C0.122
%
G90
G05
T1
X050008Y-042031
T2
X034500Y-039500
X034500Y-045500
X035500Y-039500
X035500Y-045500
X036500Y-039500
X036500Y-045500
X037500Y-039500
X037500Y-045500
X038500Y-039500
X038500Y-045500
X039500Y-039500
X039500Y-045500
X040500Y-039500
X040500Y-045500
X041500Y-039500
X041500Y-045500
X042500Y-039500
X042500Y-045500
X047750Y-039500
X047750Y-045500
X048750Y-039500
X048750Y-045500
X049750Y-039500
X049750Y-045500
X050750Y-039500
X050750Y-045500
X051750Y-039500
X051750Y-045500
X052750Y-039500
X052750Y-045500
X053750Y-039500
X053750Y-045500
X054750Y-039500
X054750Y-045500
X055750Y-039500
X055750Y-045500
X061000Y-039500
X061000Y-045500
X062000Y-039500
X062000Y-045500
X063000Y-039500
X063000Y-045500
X064000Y-039500
X064000Y-045500
X065000Y-039500
X065000Y-045500
X066000Y-039500
X066000Y-045500
X067000Y-039500
X067000Y-045500
X068000Y-039500
X068000Y-045500
X069000Y-039500
X069000Y-045500
T3
X045000Y-042000
T4
X045000Y-042984
T5
X058500Y-040500
X058500Y-044500
T6
X034000Y-037000
X035000Y-037000
X036000Y-037000
X049500Y-037000
X050500Y-037000
X051500Y-037000
X052500Y-037000
X053500Y-037000
X054500Y-037000
X068500Y-037000
X069500Y-037000
T7
X032250Y-042500
X071250Y-042500
T0
M30
