G04 #@! TF.FileFunction,Legend,Top*
%FSLAX46Y46*%
G04 Gerber Fmt 4.6, Leading zero omitted, Abs format (unit mm)*
G04 Created by KiCad (PCBNEW (2015-07-22 BZR 5980)-product) date Thursday, August 27, 2015 'AMt' 07:54:42 AM*
%MOMM*%
G01*
G04 APERTURE LIST*
%ADD10C,0.100000*%
%ADD11C,0.300000*%
%ADD12C,0.150000*%
G04 APERTURE END LIST*
D10*
D11*
X81152857Y-122440000D02*
X81010000Y-122368571D01*
X80795714Y-122368571D01*
X80581429Y-122440000D01*
X80438571Y-122582857D01*
X80367143Y-122725714D01*
X80295714Y-123011429D01*
X80295714Y-123225714D01*
X80367143Y-123511429D01*
X80438571Y-123654286D01*
X80581429Y-123797143D01*
X80795714Y-123868571D01*
X80938571Y-123868571D01*
X81152857Y-123797143D01*
X81224286Y-123725714D01*
X81224286Y-123225714D01*
X80938571Y-123225714D01*
X81867143Y-123868571D02*
X81867143Y-122868571D01*
X81867143Y-122368571D02*
X81795714Y-122440000D01*
X81867143Y-122511429D01*
X81938571Y-122440000D01*
X81867143Y-122368571D01*
X81867143Y-122511429D01*
X83224286Y-122868571D02*
X83224286Y-124082857D01*
X83152857Y-124225714D01*
X83081429Y-124297143D01*
X82938572Y-124368571D01*
X82724286Y-124368571D01*
X82581429Y-124297143D01*
X83224286Y-123797143D02*
X83081429Y-123868571D01*
X82795715Y-123868571D01*
X82652857Y-123797143D01*
X82581429Y-123725714D01*
X82510000Y-123582857D01*
X82510000Y-123154286D01*
X82581429Y-123011429D01*
X82652857Y-122940000D01*
X82795715Y-122868571D01*
X83081429Y-122868571D01*
X83224286Y-122940000D01*
X84581429Y-123868571D02*
X84581429Y-123082857D01*
X84510000Y-122940000D01*
X84367143Y-122868571D01*
X84081429Y-122868571D01*
X83938572Y-122940000D01*
X84581429Y-123797143D02*
X84438572Y-123868571D01*
X84081429Y-123868571D01*
X83938572Y-123797143D01*
X83867143Y-123654286D01*
X83867143Y-123511429D01*
X83938572Y-123368571D01*
X84081429Y-123297143D01*
X84438572Y-123297143D01*
X84581429Y-123225714D01*
X85295715Y-122868571D02*
X85295715Y-123868571D01*
X85295715Y-123011429D02*
X85367143Y-122940000D01*
X85510001Y-122868571D01*
X85724286Y-122868571D01*
X85867143Y-122940000D01*
X85938572Y-123082857D01*
X85938572Y-123868571D01*
X86438572Y-122868571D02*
X87010001Y-122868571D01*
X86652858Y-122368571D02*
X86652858Y-123654286D01*
X86724286Y-123797143D01*
X86867144Y-123868571D01*
X87010001Y-123868571D01*
X87510001Y-123868571D02*
X87510001Y-122868571D01*
X87510001Y-122368571D02*
X87438572Y-122440000D01*
X87510001Y-122511429D01*
X87581429Y-122440000D01*
X87510001Y-122368571D01*
X87510001Y-122511429D01*
X88867144Y-123797143D02*
X88724287Y-123868571D01*
X88438573Y-123868571D01*
X88295715Y-123797143D01*
X88224287Y-123725714D01*
X88152858Y-123582857D01*
X88152858Y-123154286D01*
X88224287Y-123011429D01*
X88295715Y-122940000D01*
X88438573Y-122868571D01*
X88724287Y-122868571D01*
X88867144Y-122940000D01*
X89724287Y-123868571D02*
X89581429Y-123797143D01*
X89510001Y-123725714D01*
X89438572Y-123582857D01*
X89438572Y-123154286D01*
X89510001Y-123011429D01*
X89581429Y-122940000D01*
X89724287Y-122868571D01*
X89938572Y-122868571D01*
X90081429Y-122940000D01*
X90152858Y-123011429D01*
X90224287Y-123154286D01*
X90224287Y-123582857D01*
X90152858Y-123725714D01*
X90081429Y-123797143D01*
X89938572Y-123868571D01*
X89724287Y-123868571D01*
X90867144Y-123868571D02*
X90867144Y-122868571D01*
X90867144Y-123154286D02*
X90938572Y-123011429D01*
X91010001Y-122940000D01*
X91152858Y-122868571D01*
X91295715Y-122868571D01*
X91795715Y-122868571D02*
X91795715Y-124368571D01*
X91795715Y-122940000D02*
X91938572Y-122868571D01*
X92224286Y-122868571D01*
X92367143Y-122940000D01*
X92438572Y-123011429D01*
X92510001Y-123154286D01*
X92510001Y-123582857D01*
X92438572Y-123725714D01*
X92367143Y-123797143D01*
X92224286Y-123868571D01*
X91938572Y-123868571D01*
X91795715Y-123797143D01*
X95152858Y-123725714D02*
X95081429Y-123797143D01*
X94867143Y-123868571D01*
X94724286Y-123868571D01*
X94510001Y-123797143D01*
X94367143Y-123654286D01*
X94295715Y-123511429D01*
X94224286Y-123225714D01*
X94224286Y-123011429D01*
X94295715Y-122725714D01*
X94367143Y-122582857D01*
X94510001Y-122440000D01*
X94724286Y-122368571D01*
X94867143Y-122368571D01*
X95081429Y-122440000D01*
X95152858Y-122511429D01*
X96010001Y-123868571D02*
X95867143Y-123797143D01*
X95795715Y-123654286D01*
X95795715Y-122368571D01*
X96795715Y-123868571D02*
X96652857Y-123797143D01*
X96581429Y-123725714D01*
X96510000Y-123582857D01*
X96510000Y-123154286D01*
X96581429Y-123011429D01*
X96652857Y-122940000D01*
X96795715Y-122868571D01*
X97010000Y-122868571D01*
X97152857Y-122940000D01*
X97224286Y-123011429D01*
X97295715Y-123154286D01*
X97295715Y-123582857D01*
X97224286Y-123725714D01*
X97152857Y-123797143D01*
X97010000Y-123868571D01*
X96795715Y-123868571D01*
X98581429Y-123797143D02*
X98438572Y-123868571D01*
X98152858Y-123868571D01*
X98010000Y-123797143D01*
X97938572Y-123725714D01*
X97867143Y-123582857D01*
X97867143Y-123154286D01*
X97938572Y-123011429D01*
X98010000Y-122940000D01*
X98152858Y-122868571D01*
X98438572Y-122868571D01*
X98581429Y-122940000D01*
X99224286Y-123868571D02*
X99224286Y-122368571D01*
X99367143Y-123297143D02*
X99795714Y-123868571D01*
X99795714Y-122868571D02*
X99224286Y-123440000D01*
X102295715Y-123868571D02*
X101581429Y-123868571D01*
X101581429Y-122368571D01*
X102795715Y-123082857D02*
X103295715Y-123082857D01*
X103510001Y-123868571D02*
X102795715Y-123868571D01*
X102795715Y-122368571D01*
X103510001Y-122368571D01*
X104152858Y-123868571D02*
X104152858Y-122368571D01*
X104510001Y-122368571D01*
X104724286Y-122440000D01*
X104867144Y-122582857D01*
X104938572Y-122725714D01*
X105010001Y-123011429D01*
X105010001Y-123225714D01*
X104938572Y-123511429D01*
X104867144Y-123654286D01*
X104724286Y-123797143D01*
X104510001Y-123868571D01*
X104152858Y-123868571D01*
X107295715Y-123082857D02*
X107510001Y-123154286D01*
X107581429Y-123225714D01*
X107652858Y-123368571D01*
X107652858Y-123582857D01*
X107581429Y-123725714D01*
X107510001Y-123797143D01*
X107367143Y-123868571D01*
X106795715Y-123868571D01*
X106795715Y-122368571D01*
X107295715Y-122368571D01*
X107438572Y-122440000D01*
X107510001Y-122511429D01*
X107581429Y-122654286D01*
X107581429Y-122797143D01*
X107510001Y-122940000D01*
X107438572Y-123011429D01*
X107295715Y-123082857D01*
X106795715Y-123082857D01*
X108510001Y-123868571D02*
X108367143Y-123797143D01*
X108295715Y-123725714D01*
X108224286Y-123582857D01*
X108224286Y-123154286D01*
X108295715Y-123011429D01*
X108367143Y-122940000D01*
X108510001Y-122868571D01*
X108724286Y-122868571D01*
X108867143Y-122940000D01*
X108938572Y-123011429D01*
X109010001Y-123154286D01*
X109010001Y-123582857D01*
X108938572Y-123725714D01*
X108867143Y-123797143D01*
X108724286Y-123868571D01*
X108510001Y-123868571D01*
X110295715Y-123868571D02*
X110295715Y-123082857D01*
X110224286Y-122940000D01*
X110081429Y-122868571D01*
X109795715Y-122868571D01*
X109652858Y-122940000D01*
X110295715Y-123797143D02*
X110152858Y-123868571D01*
X109795715Y-123868571D01*
X109652858Y-123797143D01*
X109581429Y-123654286D01*
X109581429Y-123511429D01*
X109652858Y-123368571D01*
X109795715Y-123297143D01*
X110152858Y-123297143D01*
X110295715Y-123225714D01*
X111010001Y-123868571D02*
X111010001Y-122868571D01*
X111010001Y-123154286D02*
X111081429Y-123011429D01*
X111152858Y-122940000D01*
X111295715Y-122868571D01*
X111438572Y-122868571D01*
X112581429Y-123868571D02*
X112581429Y-122368571D01*
X112581429Y-123797143D02*
X112438572Y-123868571D01*
X112152858Y-123868571D01*
X112010000Y-123797143D01*
X111938572Y-123725714D01*
X111867143Y-123582857D01*
X111867143Y-123154286D01*
X111938572Y-123011429D01*
X112010000Y-122940000D01*
X112152858Y-122868571D01*
X112438572Y-122868571D01*
X112581429Y-122940000D01*
X115295715Y-123868571D02*
X114795715Y-123154286D01*
X114438572Y-123868571D02*
X114438572Y-122368571D01*
X115010000Y-122368571D01*
X115152858Y-122440000D01*
X115224286Y-122511429D01*
X115295715Y-122654286D01*
X115295715Y-122868571D01*
X115224286Y-123011429D01*
X115152858Y-123082857D01*
X115010000Y-123154286D01*
X114438572Y-123154286D01*
X116510000Y-123797143D02*
X116367143Y-123868571D01*
X116081429Y-123868571D01*
X115938572Y-123797143D01*
X115867143Y-123654286D01*
X115867143Y-123082857D01*
X115938572Y-122940000D01*
X116081429Y-122868571D01*
X116367143Y-122868571D01*
X116510000Y-122940000D01*
X116581429Y-123082857D01*
X116581429Y-123225714D01*
X115867143Y-123368571D01*
X117081429Y-122868571D02*
X117438572Y-123868571D01*
X117795714Y-122868571D01*
X118367143Y-123725714D02*
X118438571Y-123797143D01*
X118367143Y-123868571D01*
X118295714Y-123797143D01*
X118367143Y-123725714D01*
X118367143Y-123868571D01*
X120724286Y-123082857D02*
X120938572Y-123154286D01*
X121010000Y-123225714D01*
X121081429Y-123368571D01*
X121081429Y-123582857D01*
X121010000Y-123725714D01*
X120938572Y-123797143D01*
X120795714Y-123868571D01*
X120224286Y-123868571D01*
X120224286Y-122368571D01*
X120724286Y-122368571D01*
X120867143Y-122440000D01*
X120938572Y-122511429D01*
X121010000Y-122654286D01*
X121010000Y-122797143D01*
X120938572Y-122940000D01*
X120867143Y-123011429D01*
X120724286Y-123082857D01*
X120224286Y-123082857D01*
D12*
X183261000Y-107950000D02*
G75*
G03X183261000Y-107950000I-2286000J0D01*
G01*
X84201000Y-107950000D02*
G75*
G03X84201000Y-107950000I-2286000J0D01*
G01*
X85090000Y-99060000D02*
X85090000Y-116840000D01*
X110490000Y-99060000D02*
X110490000Y-116840000D01*
X95250000Y-107950000D02*
X90170000Y-107950000D01*
X100330000Y-107950000D02*
X105410000Y-107950000D01*
X85090000Y-116840000D02*
X110490000Y-116840000D01*
X110490000Y-99060000D02*
X85090000Y-99060000D01*
X100330000Y-102870000D02*
X100330000Y-113030000D01*
X100330000Y-113030000D02*
X105410000Y-113030000D01*
X105410000Y-113030000D02*
X105410000Y-102870000D01*
X105410000Y-102870000D02*
X100330000Y-102870000D01*
X90170000Y-102870000D02*
X90170000Y-113030000D01*
X90170000Y-113030000D02*
X95250000Y-113030000D01*
X95250000Y-113030000D02*
X95250000Y-102870000D01*
X95250000Y-102870000D02*
X90170000Y-102870000D01*
X118745000Y-99060000D02*
X118745000Y-116840000D01*
X144145000Y-99060000D02*
X144145000Y-116840000D01*
X128905000Y-107950000D02*
X123825000Y-107950000D01*
X133985000Y-107950000D02*
X139065000Y-107950000D01*
X118745000Y-116840000D02*
X144145000Y-116840000D01*
X144145000Y-99060000D02*
X118745000Y-99060000D01*
X133985000Y-102870000D02*
X133985000Y-113030000D01*
X133985000Y-113030000D02*
X139065000Y-113030000D01*
X139065000Y-113030000D02*
X139065000Y-102870000D01*
X139065000Y-102870000D02*
X133985000Y-102870000D01*
X123825000Y-102870000D02*
X123825000Y-113030000D01*
X123825000Y-113030000D02*
X128905000Y-113030000D01*
X128905000Y-113030000D02*
X128905000Y-102870000D01*
X128905000Y-102870000D02*
X123825000Y-102870000D01*
X152400000Y-99060000D02*
X152400000Y-116840000D01*
X177800000Y-99060000D02*
X177800000Y-116840000D01*
X162560000Y-107950000D02*
X157480000Y-107950000D01*
X167640000Y-107950000D02*
X172720000Y-107950000D01*
X152400000Y-116840000D02*
X177800000Y-116840000D01*
X177800000Y-99060000D02*
X152400000Y-99060000D01*
X167640000Y-102870000D02*
X167640000Y-113030000D01*
X167640000Y-113030000D02*
X172720000Y-113030000D01*
X172720000Y-113030000D02*
X172720000Y-102870000D01*
X172720000Y-102870000D02*
X167640000Y-102870000D01*
X157480000Y-102870000D02*
X157480000Y-113030000D01*
X157480000Y-113030000D02*
X162560000Y-113030000D01*
X162560000Y-113030000D02*
X162560000Y-102870000D01*
X162560000Y-102870000D02*
X157480000Y-102870000D01*
X95551905Y-107402381D02*
X96218572Y-107402381D01*
X95790000Y-108402381D01*
X96551905Y-108354762D02*
X96694762Y-108402381D01*
X96932858Y-108402381D01*
X97028096Y-108354762D01*
X97075715Y-108307143D01*
X97123334Y-108211905D01*
X97123334Y-108116667D01*
X97075715Y-108021429D01*
X97028096Y-107973810D01*
X96932858Y-107926190D01*
X96742381Y-107878571D01*
X96647143Y-107830952D01*
X96599524Y-107783333D01*
X96551905Y-107688095D01*
X96551905Y-107592857D01*
X96599524Y-107497619D01*
X96647143Y-107450000D01*
X96742381Y-107402381D01*
X96980477Y-107402381D01*
X97123334Y-107450000D01*
X97551905Y-107878571D02*
X97885239Y-107878571D01*
X98028096Y-108402381D02*
X97551905Y-108402381D01*
X97551905Y-107402381D01*
X98028096Y-107402381D01*
X98980477Y-107450000D02*
X98885239Y-107402381D01*
X98742382Y-107402381D01*
X98599524Y-107450000D01*
X98504286Y-107545238D01*
X98456667Y-107640476D01*
X98409048Y-107830952D01*
X98409048Y-107973810D01*
X98456667Y-108164286D01*
X98504286Y-108259524D01*
X98599524Y-108354762D01*
X98742382Y-108402381D01*
X98837620Y-108402381D01*
X98980477Y-108354762D01*
X99028096Y-108307143D01*
X99028096Y-107973810D01*
X98837620Y-107973810D01*
X99980477Y-108402381D02*
X99409048Y-108402381D01*
X99694762Y-108402381D02*
X99694762Y-107402381D01*
X99599524Y-107545238D01*
X99504286Y-107640476D01*
X99409048Y-107688095D01*
X129206905Y-107402381D02*
X129873572Y-107402381D01*
X129445000Y-108402381D01*
X130206905Y-108354762D02*
X130349762Y-108402381D01*
X130587858Y-108402381D01*
X130683096Y-108354762D01*
X130730715Y-108307143D01*
X130778334Y-108211905D01*
X130778334Y-108116667D01*
X130730715Y-108021429D01*
X130683096Y-107973810D01*
X130587858Y-107926190D01*
X130397381Y-107878571D01*
X130302143Y-107830952D01*
X130254524Y-107783333D01*
X130206905Y-107688095D01*
X130206905Y-107592857D01*
X130254524Y-107497619D01*
X130302143Y-107450000D01*
X130397381Y-107402381D01*
X130635477Y-107402381D01*
X130778334Y-107450000D01*
X131206905Y-107878571D02*
X131540239Y-107878571D01*
X131683096Y-108402381D02*
X131206905Y-108402381D01*
X131206905Y-107402381D01*
X131683096Y-107402381D01*
X132635477Y-107450000D02*
X132540239Y-107402381D01*
X132397382Y-107402381D01*
X132254524Y-107450000D01*
X132159286Y-107545238D01*
X132111667Y-107640476D01*
X132064048Y-107830952D01*
X132064048Y-107973810D01*
X132111667Y-108164286D01*
X132159286Y-108259524D01*
X132254524Y-108354762D01*
X132397382Y-108402381D01*
X132492620Y-108402381D01*
X132635477Y-108354762D01*
X132683096Y-108307143D01*
X132683096Y-107973810D01*
X132492620Y-107973810D01*
X133064048Y-107497619D02*
X133111667Y-107450000D01*
X133206905Y-107402381D01*
X133445001Y-107402381D01*
X133540239Y-107450000D01*
X133587858Y-107497619D01*
X133635477Y-107592857D01*
X133635477Y-107688095D01*
X133587858Y-107830952D01*
X133016429Y-108402381D01*
X133635477Y-108402381D01*
X162861905Y-107402381D02*
X163528572Y-107402381D01*
X163100000Y-108402381D01*
X163861905Y-108354762D02*
X164004762Y-108402381D01*
X164242858Y-108402381D01*
X164338096Y-108354762D01*
X164385715Y-108307143D01*
X164433334Y-108211905D01*
X164433334Y-108116667D01*
X164385715Y-108021429D01*
X164338096Y-107973810D01*
X164242858Y-107926190D01*
X164052381Y-107878571D01*
X163957143Y-107830952D01*
X163909524Y-107783333D01*
X163861905Y-107688095D01*
X163861905Y-107592857D01*
X163909524Y-107497619D01*
X163957143Y-107450000D01*
X164052381Y-107402381D01*
X164290477Y-107402381D01*
X164433334Y-107450000D01*
X164861905Y-107878571D02*
X165195239Y-107878571D01*
X165338096Y-108402381D02*
X164861905Y-108402381D01*
X164861905Y-107402381D01*
X165338096Y-107402381D01*
X166290477Y-107450000D02*
X166195239Y-107402381D01*
X166052382Y-107402381D01*
X165909524Y-107450000D01*
X165814286Y-107545238D01*
X165766667Y-107640476D01*
X165719048Y-107830952D01*
X165719048Y-107973810D01*
X165766667Y-108164286D01*
X165814286Y-108259524D01*
X165909524Y-108354762D01*
X166052382Y-108402381D01*
X166147620Y-108402381D01*
X166290477Y-108354762D01*
X166338096Y-108307143D01*
X166338096Y-107973810D01*
X166147620Y-107973810D01*
X166671429Y-107402381D02*
X167290477Y-107402381D01*
X166957143Y-107783333D01*
X167100001Y-107783333D01*
X167195239Y-107830952D01*
X167242858Y-107878571D01*
X167290477Y-107973810D01*
X167290477Y-108211905D01*
X167242858Y-108307143D01*
X167195239Y-108354762D01*
X167100001Y-108402381D01*
X166814286Y-108402381D01*
X166719048Y-108354762D01*
X166671429Y-108307143D01*
M02*
